<svg xmlns="http://www.w3.org/2000/svg" version="1.1" xmlns:xlink="http://www.w3.org/1999/xlink" xmlns:svgjs="http://svgjs.dev/svgjs" width="1000" height="1000" viewBox="0 0 1000 1000"><rect width="1000" height="1000" fill="#ffffff"></rect><g transform="matrix(0.7,0,0,0.7,149.57575757575756,419.23348836889147)"><svg viewBox="0 0 396 92" data-background-color="#ffffff" preserveAspectRatio="xMidYMid meet" height="232" width="1000" xmlns="http://www.w3.org/2000/svg" xmlns:xlink="http://www.w3.org/1999/xlink"><g id="tight-bounds" transform="matrix(1,0,0,1,0.2400000000000091,-0.24557222868236295)"><svg viewBox="0 0 395.52 92.49114445736475" height="92.49114445736475" width="395.52"><g><svg viewBox="0 0 495.65999707927955 115.90857704186044" height="92.49114445736475" width="395.52"><g transform="matrix(1,0,0,1,100.13999707927958,35.81743270697673)"><svg viewBox="0 0 395.52 44.27371162790697" height="44.27371162790697" width="395.52"><g id="textblocktransform"><svg viewBox="0 0 395.52 44.27371162790697" height="44.27371162790697" width="395.52" id="textblock"><g><svg viewBox="0 0 395.52 44.27371162790697" height="44.27371162790697" width="395.52"><g transform="matrix(1,0,0,1,0,0)"><svg width="395.52" viewBox="2.799999952316284 -35.5 322.4800109863281 36.099998474121094" height="44.27371162790697" data-palette-color="#0033cc"><path d="M17.2 0.6L17.2 0.6Q13.9 0.6 11.23-0.6 8.55-1.8 6.68-4.13 4.8-6.45 3.8-9.8 2.8-13.15 2.8-17.45L2.8-17.45Q2.8-21.85 3.8-25.23 4.8-28.6 6.65-30.88 8.5-33.15 11.15-34.33 13.8-35.5 17.05-35.5L17.05-35.5Q18.95-35.5 20.48-35.15 22-34.8 23.15-34.2 24.3-33.6 25.03-32.85 25.75-32.1 26.1-31.3L26.1-31.3 26.25-31.3 26.25-34.9 28.85-34.9 28.85-24.7 26.25-24.7 26.25-27.5Q26.25-28.8 25.6-29.93 24.95-31.05 23.78-31.85 22.6-32.65 20.98-33.1 19.35-33.55 17.35-33.55L17.35-33.55Q14.55-33.55 12.48-32.55 10.4-31.55 9-29.75 7.6-27.95 6.9-25.43 6.2-22.9 6.2-19.8L6.2-19.8 6.2-15.3Q6.2-8.75 9.25-5.23 12.3-1.7 17.75-1.7L17.75-1.7Q21.65-1.7 24.18-3.58 26.7-5.45 27.85-8.45L27.85-8.45 29.35-7.75Q28.8-6.2 27.8-4.7 26.8-3.2 25.3-2.02 23.8-0.85 21.78-0.13 19.75 0.6 17.2 0.6ZM49.95-1.35L49.95-1.35Q52.7-1.35 54.87-2.33 57.05-3.3 58.55-5.1 60.05-6.9 60.82-9.47 61.6-12.05 61.6-15.3L61.6-15.3 61.6-19.6Q61.6-22.8 60.82-25.4 60.05-28 58.55-29.8 57.05-31.6 54.87-32.58 52.7-33.55 49.95-33.55L49.95-33.55Q47.15-33.55 45-32.58 42.85-31.6 41.35-29.8 39.85-28 39.07-25.4 38.3-22.8 38.3-19.6L38.3-19.6 38.3-15.3Q38.3-12.05 39.07-9.47 39.85-6.9 41.35-5.1 42.85-3.3 45-2.33 47.15-1.35 49.95-1.35ZM49.95 0.6L49.95 0.6Q46.5 0.6 43.7-0.6 40.9-1.8 38.95-4.1 37-6.4 35.95-9.78 34.9-13.15 34.9-17.45L34.9-17.45Q34.9-21.75 35.95-25.13 37-28.5 38.95-30.8 40.9-33.1 43.7-34.3 46.5-35.5 49.95-35.5L49.95-35.5Q53.4-35.5 56.2-34.3 59-33.1 60.95-30.8 62.9-28.5 63.95-25.13 65-21.75 65-17.45L65-17.45Q65-13.15 63.95-9.78 62.9-6.4 60.95-4.1 59-1.8 56.2-0.6 53.4 0.6 49.95 0.6ZM70.59 0L70.59-1.75 74.54-1.75 74.54-33.15 70.59-33.15 70.59-34.9 78.29-34.9 89.49-13.5 89.64-13.5 101.14-34.9 108.5-34.9 108.5-33.15 104.54-33.15 104.54-1.75 108.5-1.75 108.5 0 97.54 0 97.54-1.75 101.5-1.75 101.5-31.4 101.34-31.4 98.09-25.3 88.94-8.2 80.39-24.55 76.84-31.4 76.64-31.4 76.64-1.75 80.59-1.75 80.59 0 70.59 0ZM129.49 0.6L129.49 0.6Q126.14 0.6 123.82-0.15 121.49-0.9 120.02-2.58 118.54-4.25 117.89-6.93 117.24-9.6 117.24-13.45L117.24-13.45 117.24-33.15 113.29-33.15 113.29-34.9 124.24-34.9 124.24-33.15 120.29-33.15 120.29-12.95Q120.29-9.95 120.77-7.78 121.24-5.6 122.32-4.23 123.39-2.85 125.19-2.18 126.99-1.5 129.69-1.5L129.69-1.5Q132.34-1.5 134.17-2.18 135.99-2.85 137.12-4.23 138.24-5.6 138.72-7.78 139.19-9.95 139.19-12.95L139.19-12.95 139.19-33.15 135.24-33.15 135.24-34.9 145.24-34.9 145.24-33.15 141.29-33.15 141.29-13.85Q141.29-10 140.69-7.28 140.09-4.55 138.72-2.8 137.34-1.05 135.07-0.23 132.79 0.6 129.49 0.6ZM150.04 0L150.04-1.75 153.99-1.75 153.99-33.15 150.04-33.15 150.04-34.9 157.49-34.9 177.14-4.8 177.34-4.8 177.34-33.15 173.39-33.15 173.39-34.9 183.39-34.9 183.39-33.15 179.44-33.15 179.44 0 176.79 0 156.29-31.5 156.09-31.5 156.09-1.75 160.04-1.75 160.04 0 150.04 0ZM188.19 0L188.19-1.75 192.14-1.75 192.14-33.15 188.19-33.15 188.19-34.9 199.14-34.9 199.14-33.15 195.19-33.15 195.19-1.75 199.14-1.75 199.14 0 188.19 0ZM218.98 0.6L218.98 0.6Q215.69 0.6 213.01-0.6 210.34-1.8 208.46-4.13 206.59-6.45 205.59-9.8 204.59-13.15 204.59-17.45L204.59-17.45Q204.59-21.85 205.59-25.23 206.59-28.6 208.44-30.88 210.28-33.15 212.94-34.33 215.59-35.5 218.84-35.5L218.84-35.5Q220.73-35.5 222.26-35.15 223.78-34.8 224.94-34.2 226.09-33.6 226.81-32.85 227.53-32.1 227.88-31.3L227.88-31.3 228.03-31.3 228.03-34.9 230.63-34.9 230.63-24.7 228.03-24.7 228.03-27.5Q228.03-28.8 227.38-29.93 226.74-31.05 225.56-31.85 224.38-32.65 222.76-33.1 221.13-33.55 219.13-33.55L219.13-33.55Q216.34-33.55 214.26-32.55 212.19-31.55 210.78-29.75 209.38-27.95 208.69-25.43 207.98-22.9 207.98-19.8L207.98-19.8 207.98-15.3Q207.98-8.75 211.03-5.23 214.09-1.7 219.53-1.7L219.53-1.7Q223.44-1.7 225.96-3.58 228.49-5.45 229.63-8.45L229.63-8.45 231.13-7.75Q230.59-6.2 229.59-4.7 228.59-3.2 227.09-2.02 225.59-0.85 223.56-0.13 221.53 0.6 218.98 0.6ZM234.43 0L234.43-1.75 237.18-1.75 248.93-34.9 252.33-34.9 264.08-1.75 266.83-1.75 266.83 0 256.03 0 256.03-1.75 260.78-1.75 257.38-11.5 242.83-11.5 239.43-1.75 244.18-1.75 244.18 0 234.43 0ZM249.98-32.25L243.38-13.3 256.78-13.3 250.23-32.25 249.98-32.25ZM274.78 0L274.78-1.75 279.73-1.75 279.73-33.05 269.63-33.05 269.63-26.9 267.03-26.9 267.03-34.9 295.48-34.9 295.48-26.9 292.88-26.9 292.88-33.05 282.78-33.05 282.78-1.75 287.73-1.75 287.73 0 274.78 0ZM300.08 0L300.08-1.75 304.03-1.75 304.03-33.15 300.08-33.15 300.08-34.9 324.83-34.9 324.83-26.9 322.23-26.9 322.23-33.05 307.08-33.05 307.08-19.05 318.23-19.05 318.23-23.15 320.48-23.15 320.48-13.1 318.23-13.1 318.23-17.2 307.08-17.2 307.08-1.85 322.68-1.85 322.68-8.3 325.28-8.3 325.28 0 300.08 0Z" opacity="1" transform="matrix(1,0,0,1,0,0)" fill="#0033cc" class="wordmark-text-0" data-fill-palette-color="primary" id="text-0"></path></svg></g></svg></g></svg></g></svg></g><g><svg viewBox="0 0 89.68803633300982 115.90857704186044" height="115.90857704186044" width="89.68803633300982"><g><svg xmlns="http://www.w3.org/2000/svg" xmlns:xlink="http://www.w3.org/1999/xlink" version="1.1" x="0" y="0" viewBox="12.982999801635742 1 75.68599700927734 97.81300354003906" enable-background="new 0 0 100 100" xml:space="preserve" height="115.90857704186044" width="89.68803633300982" class="icon-icon-0" data-fill-palette-color="accent" id="icon-0"><g fill="#24a8df" data-fill-palette-color="accent"><polygon fill-rule="evenodd" clip-rule="evenodd" points="12.983,10.59 30.001,98.813 24.129,39.764 53.15,37.872 53.096,27.989    64.549,1 53.622,18.977  " fill="#24a8df" data-fill-palette-color="accent"></polygon><polygon fill-rule="evenodd" clip-rule="evenodd" points="59.389,54.548 64.549,1.007 55.809,40.723 36.197,41.768 37.767,62.23    30.001,98.813 42.058,58.914  " fill="#24a8df" data-fill-palette-color="accent"></polygon><polygon fill-rule="evenodd" clip-rule="evenodd" points="62.8,67.182 63.349,56.729 47.37,60.484 47.338,72.281 30.001,98.813    51.681,71.197  " fill="#24a8df" data-fill-palette-color="accent"></polygon><polygon fill-rule="evenodd" clip-rule="evenodd" points="65.711,62.394 80.552,57.663 82.061,45.131 66.162,47.226  " fill="#24a8df" data-fill-palette-color="accent"></polygon><polygon fill-rule="evenodd" clip-rule="evenodd" points="72.07,44.502 83.058,43.085 84.639,32.807 76.56,32.434 64.549,1    72.979,31.967  " fill="#24a8df" data-fill-palette-color="accent"></polygon><polygon fill-rule="evenodd" clip-rule="evenodd" points="87.413,31.294 88.669,21.788 79.125,19.094 64.549,1 79.032,23.437    78.61,30.437  " fill="#24a8df" data-fill-palette-color="accent"></polygon></g></svg></g></svg></g></svg></g><defs></defs></svg><rect width="395.52" height="92.49114445736475" fill="none" stroke="none" visibility="hidden"></rect></g></svg></g></svg>