<svg xmlns="http://www.w3.org/2000/svg" viewBox="0 0 1440 320">
  <path fill="#b016b3" fill-opacity="1" d="M0,288L20,250.7C40,213,80,139,120,112C160,85,200,107,240,149.3C280,192,320,256,360,256C400,256,440,192,480,160C520,128,560,128,600,160C640,192,680,256,720,250.7C760,245,800,171,840,133.3C880,96,920,96,960,112C1000,128,1040,160,1080,186.7C1120,213,1160,235,1200,218.7C1240,203,1280,149,1320,144C1360,139,1400,181,1420,202.7L1440,224L1440,0L1420,0C1400,0,1360,0,1320,0C1280,0,1240,0,1200,0C1160,0,1120,0,1080,0C1040,0,1000,0,960,0C920,0,880,0,840,0C800,0,760,0,720,0C680,0,640,0,600,0C560,0,520,0,480,0C440,0,400,0,360,0C320,0,280,0,240,0C200,0,160,0,120,0C80,0,40,0,20,0L0,0Z"></path>
</svg>